<?xml version="1.0" standalone="no"?>
<!DOCTYPE svg PUBLIC "-//W3C//DTD SVG 20010904//EN"
 "http://www.w3.org/TR/2001/REC-SVG-20010904/DTD/svg10.dtd">
<svg version="1.0" xmlns="http://www.w3.org/2000/svg"
 width="239.000000pt" height="239.000000pt" viewBox="0 0 239.000000 239.000000"
 preserveAspectRatio="xMidYMid meet">
<g transform="translate(0.000000,239.000000) scale(0.100000,-0.100000)"
fill="#000000" stroke="none">
<path d="M1893 1946 c-105 -108 -193 -196 -196 -196 -2 0 -23 29 -46 65 -63
97 -163 190 -250 233 -70 34 -81 37 -166 37 -85 0 -96 -2 -168 -38 -219 -108
-403 -422 -466 -796 -34 -197 -25 -344 30 -509 l21 -64 -186 -187 c-102 -103
-186 -192 -186 -197 0 -20 27 -46 44 -43 9 2 96 83 192 179 l174 175 37 -45
c87 -106 190 -179 313 -221 90 -30 251 -37 340 -15 243 62 418 242 484 496 24
89 31 256 17 365 -15 118 -62 292 -106 396 -19 46 -35 88 -35 94 0 6 90 100
200 210 166 166 200 204 198 225 -2 19 -10 26 -29 28 -22 3 -54 -26 -216 -192z
m-521 31 c73 -36 163 -123 222 -215 l47 -73 -236 -242 c-130 -133 -242 -243
-249 -245 -6 -1 -38 25 -71 58 -33 33 -66 60 -75 60 -8 0 -49 -34 -90 -75 -41
-41 -79 -75 -85 -75 -6 0 -41 31 -79 69 l-68 69 12 53 c34 143 126 341 212
454 53 71 158 155 223 180 64 23 168 16 237 -18z m367 -521 c23 -68 41 -133
41 -144 0 -22 -137 -142 -162 -142 -7 0 -49 21 -92 46 -91 51 -121 54 -121 10
0 -27 9 -34 105 -87 58 -32 110 -59 117 -59 6 0 46 28 88 61 58 47 79 59 88
50 21 -21 13 -254 -12 -346 -63 -237 -216 -395 -431 -446 -129 -30 -288 -5
-409 64 -58 33 -155 125 -184 175 l-17 31 201 205 c148 151 208 206 225 206
25 0 39 15 39 43 0 9 103 123 229 253 201 206 231 234 242 220 7 -10 30 -73
53 -140z m-681 -279 l42 -42 -195 -195 -194 -194 -11 30 c-26 65 -40 166 -40
284 0 69 4 131 9 139 6 10 27 -4 84 -59 55 -52 81 -70 94 -66 10 3 50 37 88
76 38 38 72 70 75 70 3 0 25 -19 48 -43z"/>
</g>
</svg>
